<?xml version="1.0" standalone="no"?>
<!DOCTYPE svg PUBLIC "-//W3C//DTD SVG 20010904//EN"
 "http://www.w3.org/TR/2001/REC-SVG-20010904/DTD/svg10.dtd">
<svg version="1.0" xmlns="http://www.w3.org/2000/svg"
 width="1080.000000pt" height="1080.000000pt" viewBox="0 0 1080.000000 1080.000000"
 preserveAspectRatio="xMidYMid meet">
<metadata>
Created by potrace 1.14, written by Peter Selinger 2001-2017
</metadata>
<g transform="translate(0.000000,1080.000000) scale(0.100000,-0.100000)"
fill="#000000" stroke="none">
<path d="M4247 9763 c-3 -3 -365 -6 -804 -8 -439 -1 -811 -5 -828 -9 -315 -72
-544 -244 -670 -503 -59 -120 -54 -105 -84 -243 -17 -82 -18 -223 -16 -3620 1
-1944 5 -3551 9 -3570 25 -112 87 -271 124 -312 8 -10 12 -18 8 -18 -6 0 17
-33 64 -94 25 -32 115 -120 146 -143 81 -61 99 -73 110 -73 7 0 14 -3 16 -8 5
-11 156 -78 198 -87 100 -22 135 -28 183 -31 32 -1 61 -5 64 -8 3 -2 16 -1 29
4 14 6 26 6 29 -1 4 -5 11 -7 16 -4 13 9 99 11 99 3 0 -4 14 -3 30 2 17 5 30
6 30 2 0 -8 79 -7 87 1 3 3 16 2 29 -3 14 -6 26 -6 29 0 3 5 15 6 28 1 12 -5
31 -5 43 -1 11 5 27 4 34 0 8 -5 22 -4 31 1 11 6 20 5 24 -1 4 -6 12 -7 22 -1
9 5 29 5 45 1 15 -5 28 -5 28 0 0 5 13 5 30 0 17 -5 32 -5 35 0 3 5 15 6 27 1
12 -4 37 -5 55 -1 18 5 33 5 33 1 0 -3 15 -5 32 -4 18 1 33 2 33 3 0 1 17 2
38 3 20 1 37 -1 37 -5 0 -4 14 -3 30 2 17 5 30 5 30 1 0 -4 27 -4 60 -1 33 3
60 3 60 -1 0 -4 14 -4 30 1 17 5 30 6 30 2 0 -8 79 -7 87 1 3 3 16 2 29 -3 14
-6 26 -6 29 1 4 5 10 7 14 5 16 -10 61 -14 61 -6 0 5 13 5 30 0 17 -5 30 -5
30 0 0 5 13 5 30 0 17 -5 30 -6 30 -2 0 4 18 7 40 7 22 0 40 -2 40 -5 0 -7
119 -4 126 3 3 3 17 2 30 -3 14 -6 26 -6 29 0 3 5 15 6 27 1 12 -4 37 -5 55
-1 18 5 35 4 38 -1 3 -4 17 -4 30 1 15 6 27 6 30 -1 4 -5 11 -7 16 -4 13 9 99
11 99 3 0 -4 14 -3 30 2 17 5 30 6 30 2 0 -8 79 -7 87 1 3 3 16 2 29 -3 14 -6
26 -6 29 0 3 5 15 6 28 1 12 -5 31 -5 43 -1 11 5 27 4 34 0 8 -5 22 -4 31 1
11 6 20 5 24 -1 4 -6 12 -7 22 -1 9 5 29 5 45 1 15 -5 28 -5 28 0 0 5 13 5 30
0 17 -5 32 -5 35 0 3 5 15 6 27 1 12 -4 37 -5 55 -1 18 5 33 5 33 1 0 -3 15
-5 32 -4 18 1 33 2 33 3 0 1 17 2 38 3 20 1 37 -1 37 -5 0 -4 14 -3 30 2 17 5
30 5 30 1 0 -4 27 -4 60 -1 33 3 60 3 60 -1 0 -4 14 -4 30 1 17 5 30 6 30 2 0
-8 79 -7 87 1 3 3 16 2 29 -3 14 -6 26 -6 29 1 4 5 10 7 14 5 16 -10 61 -14
61 -6 0 5 13 5 30 0 17 -5 30 -5 30 0 0 5 13 5 30 0 17 -5 30 -6 30 -2 0 4 18
7 40 7 22 0 40 -2 40 -5 0 -7 119 -4 126 3 3 3 17 2 30 -3 14 -6 26 -6 29 0 3
5 15 6 27 1 12 -4 37 -5 55 -1 18 5 35 4 38 -1 3 -4 17 -4 30 1 15 6 27 6 30
-1 4 -5 11 -7 16 -4 13 9 99 11 99 3 0 -4 13 -3 30 2 16 5 30 6 30 2 0 -8 79
-7 87 1 3 3 16 2 29 -3 14 -6 26 -6 29 0 3 5 15 6 28 1 12 -5 31 -5 43 -1 11
5 27 4 34 0 8 -5 22 -4 31 1 11 6 20 5 24 -1 4 -6 12 -7 22 -1 9 5 29 5 45 1
15 -5 28 -5 28 0 0 5 13 5 30 0 17 -5 32 -5 35 0 3 5 15 6 27 1 12 -4 37 -5
55 -1 18 5 33 5 33 1 0 -3 15 -5 32 -4 18 1 33 2 33 3 0 1 17 2 38 3 20 1 37
-1 37 -5 0 -4 14 -3 30 2 17 5 30 5 30 1 0 -4 27 -4 60 -1 33 3 60 3 60 -1 0
-4 14 -4 30 1 17 5 30 6 30 2 0 -4 16 -7 35 -7 19 0 35 3 35 6 0 4 16 3 34 -1
19 -4 36 -6 38 -5 2 2 36 6 76 9 41 3 77 8 80 10 4 2 24 7 44 10 93 15 284
100 349 156 9 8 41 35 70 60 156 133 279 367 305 582 13 98 8 7026 -4 7104
-39 240 -168 455 -362 602 -41 31 -78 57 -82 57 -3 0 -10 3 -14 8 -27 27 -202
92 -304 113 -19 4 -744 8 -1611 9 -868 2 -1581 5 -1587 9 -5 3 -12 3 -15 -1
-8 -8 -611 -8 -624 0 -6 4 -13 4 -16 0z"/>
</g>
</svg>
